<mxfile host="Electron" modified="2024-01-12T03:24:52.920Z" agent="Mozilla/5.0 (Windows NT 10.0; Win64; x64) AppleWebKit/537.36 (KHTML, like Gecko) draw.io/22.1.16 Chrome/120.0.6099.109 Electron/28.1.0 Safari/537.36" etag="14-31KBAKw3wv1hYCU9X" version="22.1.16" type="device">
  <diagram name="Page-1" id="sKaW2ay0ocrUj3CDV0D9">
    <mxGraphModel dx="1098" dy="988" grid="1" gridSize="10" guides="1" tooltips="1" connect="1" arrows="1" fold="1" page="1" pageScale="1" pageWidth="850" pageHeight="1100" math="0" shadow="0">
      <root>
        <mxCell id="0" />
        <mxCell id="1" parent="0" />
        <mxCell id="HnAA6rWJWF8bNZRZ1zhz-2" value="Standby DB" style="outlineConnect=0;dashed=0;verticalLabelPosition=bottom;verticalAlign=top;align=center;html=1;shape=mxgraph.aws3.rds_db_instance_standby_multi_az;fillColor=#2E73B8;gradientColor=none;" vertex="1" parent="1">
          <mxGeometry x="720" y="400" width="49.5" height="66" as="geometry" />
        </mxCell>
        <mxCell id="HnAA6rWJWF8bNZRZ1zhz-4" value="SYNC replication" style="edgeStyle=orthogonalEdgeStyle;rounded=0;orthogonalLoop=1;jettySize=auto;html=1;" edge="1" parent="1" source="HnAA6rWJWF8bNZRZ1zhz-5" target="HnAA6rWJWF8bNZRZ1zhz-2">
          <mxGeometry relative="1" as="geometry" />
        </mxCell>
        <mxCell id="HnAA6rWJWF8bNZRZ1zhz-10" value="snapshot" style="edgeStyle=orthogonalEdgeStyle;rounded=0;orthogonalLoop=1;jettySize=auto;html=1;dashed=1;" edge="1" parent="1" source="HnAA6rWJWF8bNZRZ1zhz-5" target="HnAA6rWJWF8bNZRZ1zhz-9">
          <mxGeometry relative="1" as="geometry" />
        </mxCell>
        <mxCell id="HnAA6rWJWF8bNZRZ1zhz-5" value="RDS Master DB instance" style="outlineConnect=0;dashed=0;verticalLabelPosition=top;verticalAlign=bottom;align=center;html=1;shape=mxgraph.aws3.rds_db_instance;fillColor=#2E73B8;gradientColor=none;labelPosition=center;" vertex="1" parent="1">
          <mxGeometry x="720" y="230" width="49.5" height="66" as="geometry" />
        </mxCell>
        <mxCell id="HnAA6rWJWF8bNZRZ1zhz-9" value="" style="sketch=0;outlineConnect=0;fontColor=#232F3E;gradientColor=none;fillColor=#7AA116;strokeColor=none;dashed=0;verticalLabelPosition=bottom;verticalAlign=top;align=center;html=1;fontSize=12;fontStyle=0;aspect=fixed;pointerEvents=1;shape=mxgraph.aws4.snapshot;" vertex="1" parent="1">
          <mxGeometry x="870" y="310" width="56" height="78" as="geometry" />
        </mxCell>
        <mxCell id="HnAA6rWJWF8bNZRZ1zhz-11" value="restore" style="edgeStyle=orthogonalEdgeStyle;rounded=0;orthogonalLoop=1;jettySize=auto;html=1;entryX=1;entryY=0.5;entryDx=0;entryDy=0;entryPerimeter=0;dashed=1;" edge="1" parent="1" source="HnAA6rWJWF8bNZRZ1zhz-9" target="HnAA6rWJWF8bNZRZ1zhz-2">
          <mxGeometry relative="1" as="geometry">
            <Array as="points">
              <mxPoint x="898" y="433" />
            </Array>
          </mxGeometry>
        </mxCell>
      </root>
    </mxGraphModel>
  </diagram>
</mxfile>
